<mxfile host="app.diagrams.net" modified="2023-01-24T13:05:51.917Z" agent="5.0 (Windows NT 10.0; Win64; x64) AppleWebKit/537.36 (KHTML, like Gecko) Chrome/109.0.0.0 Safari/537.36" etag="yTcOWn-QG5umXlz1vM6R" version="20.8.10" type="github">
  <diagram name="Page-1" id="bd83a815-5ea8-2e97-e5ec-87c9f400f2fa">
    <mxGraphModel dx="1709" dy="927" grid="1" gridSize="10" guides="1" tooltips="1" connect="1" arrows="1" fold="1" page="1" pageScale="1.5" pageWidth="1169" pageHeight="826" background="none" math="0" shadow="0">
      <root>
        <mxCell id="0" style=";html=1;" />
        <mxCell id="1" style=";html=1;" parent="0" />
        <mxCell id="1516e18e63f93b96-3" value="旋转对位系统设备操作指令汇总" style="text;strokeColor=none;fillColor=none;html=1;fontSize=24;fontStyle=1;verticalAlign=middle;align=center;rounded=0;shadow=1;" parent="1" vertex="1">
          <mxGeometry x="380" width="780" height="40" as="geometry" />
        </mxCell>
        <mxCell id="leJ5RlOltz1dUx3BEvnj-14" value="SYSCtrl UART USB0" style="shape=table;startSize=30;container=1;collapsible=0;childLayout=tableLayout;strokeColor=default;fontSize=16;points=[[0,0,0,0,0],[0,0.25,0,0,0],[0,0.5,0,0,0],[0,0.75,0,0,0],[0,1,0,0,0],[0.25,0,0,0,0],[0.25,1,0,0,0],[0.5,0,0,0,0],[0.5,1,0,0,0],[0.75,0,0,0,0],[0.75,1,0,0,0],[1,0,0,0,0],[1,0.25,0,0,0],[1,0.5,0,0,0],[1,0.75,0,0,0],[1,1,0,0,0]];fontStyle=1" vertex="1" parent="1">
          <mxGeometry x="300" y="100" width="910" height="190" as="geometry" />
        </mxCell>
        <mxCell id="leJ5RlOltz1dUx3BEvnj-15" value="" style="shape=tableRow;horizontal=0;startSize=0;swimlaneHead=0;swimlaneBody=0;strokeColor=inherit;top=0;left=0;bottom=0;right=0;collapsible=0;dropTarget=0;fillColor=none;points=[[0,0.5],[1,0.5]];portConstraint=eastwest;fontSize=16;" vertex="1" parent="leJ5RlOltz1dUx3BEvnj-14">
          <mxGeometry y="30" width="910" height="40" as="geometry" />
        </mxCell>
        <mxCell id="leJ5RlOltz1dUx3BEvnj-16" value="" style="shape=partialRectangle;html=1;whiteSpace=wrap;connectable=0;strokeColor=inherit;overflow=hidden;fillColor=none;top=0;left=0;bottom=0;right=0;pointerEvents=1;fontSize=16;" vertex="1" parent="leJ5RlOltz1dUx3BEvnj-15">
          <mxGeometry width="303" height="40" as="geometry">
            <mxRectangle width="303" height="40" as="alternateBounds" />
          </mxGeometry>
        </mxCell>
        <mxCell id="leJ5RlOltz1dUx3BEvnj-17" value="" style="shape=partialRectangle;html=1;whiteSpace=wrap;connectable=0;strokeColor=inherit;overflow=hidden;fillColor=none;top=0;left=0;bottom=0;right=0;pointerEvents=1;fontSize=16;" vertex="1" parent="leJ5RlOltz1dUx3BEvnj-15">
          <mxGeometry x="303" width="304" height="40" as="geometry">
            <mxRectangle width="304" height="40" as="alternateBounds" />
          </mxGeometry>
        </mxCell>
        <mxCell id="leJ5RlOltz1dUx3BEvnj-18" value="" style="shape=partialRectangle;html=1;whiteSpace=wrap;connectable=0;strokeColor=inherit;overflow=hidden;fillColor=none;top=0;left=0;bottom=0;right=0;pointerEvents=1;fontSize=16;" vertex="1" parent="leJ5RlOltz1dUx3BEvnj-15">
          <mxGeometry x="607" width="303" height="40" as="geometry">
            <mxRectangle width="303" height="40" as="alternateBounds" />
          </mxGeometry>
        </mxCell>
        <mxCell id="leJ5RlOltz1dUx3BEvnj-19" value="" style="shape=tableRow;horizontal=0;startSize=0;swimlaneHead=0;swimlaneBody=0;strokeColor=inherit;top=0;left=0;bottom=0;right=0;collapsible=0;dropTarget=0;fillColor=none;points=[[0,0.5],[1,0.5]];portConstraint=eastwest;fontSize=16;" vertex="1" parent="leJ5RlOltz1dUx3BEvnj-14">
          <mxGeometry y="70" width="910" height="40" as="geometry" />
        </mxCell>
        <mxCell id="leJ5RlOltz1dUx3BEvnj-20" value="" style="shape=partialRectangle;html=1;whiteSpace=wrap;connectable=1;strokeColor=inherit;overflow=hidden;fillColor=none;top=0;left=0;bottom=0;right=0;pointerEvents=1;fontSize=16;movable=1;resizable=1;rotatable=1;deletable=1;editable=1;" vertex="1" parent="leJ5RlOltz1dUx3BEvnj-19">
          <mxGeometry width="303" height="40" as="geometry">
            <mxRectangle width="303" height="40" as="alternateBounds" />
          </mxGeometry>
        </mxCell>
        <mxCell id="leJ5RlOltz1dUx3BEvnj-21" value="" style="shape=partialRectangle;html=1;whiteSpace=wrap;connectable=0;strokeColor=inherit;overflow=hidden;fillColor=none;top=0;left=0;bottom=0;right=0;pointerEvents=1;fontSize=16;" vertex="1" parent="leJ5RlOltz1dUx3BEvnj-19">
          <mxGeometry x="303" width="304" height="40" as="geometry">
            <mxRectangle width="304" height="40" as="alternateBounds" />
          </mxGeometry>
        </mxCell>
        <mxCell id="leJ5RlOltz1dUx3BEvnj-22" value="" style="shape=partialRectangle;html=1;whiteSpace=wrap;connectable=0;strokeColor=inherit;overflow=hidden;fillColor=none;top=0;left=0;bottom=0;right=0;pointerEvents=1;fontSize=16;" vertex="1" parent="leJ5RlOltz1dUx3BEvnj-19">
          <mxGeometry x="607" width="303" height="40" as="geometry">
            <mxRectangle width="303" height="40" as="alternateBounds" />
          </mxGeometry>
        </mxCell>
        <mxCell id="leJ5RlOltz1dUx3BEvnj-72" value="" style="shape=tableRow;horizontal=0;startSize=0;swimlaneHead=0;swimlaneBody=0;strokeColor=inherit;top=0;left=0;bottom=0;right=0;collapsible=0;dropTarget=0;fillColor=none;points=[[0,0.5],[1,0.5]];portConstraint=eastwest;fontSize=16;" vertex="1" parent="leJ5RlOltz1dUx3BEvnj-14">
          <mxGeometry y="110" width="910" height="40" as="geometry" />
        </mxCell>
        <mxCell id="leJ5RlOltz1dUx3BEvnj-73" value="" style="shape=partialRectangle;html=1;whiteSpace=wrap;connectable=1;strokeColor=inherit;overflow=hidden;fillColor=none;top=0;left=0;bottom=0;right=0;pointerEvents=1;fontSize=16;movable=1;resizable=1;rotatable=1;deletable=1;editable=1;" vertex="1" parent="leJ5RlOltz1dUx3BEvnj-72">
          <mxGeometry width="303" height="40" as="geometry">
            <mxRectangle width="303" height="40" as="alternateBounds" />
          </mxGeometry>
        </mxCell>
        <mxCell id="leJ5RlOltz1dUx3BEvnj-74" value="" style="shape=partialRectangle;html=1;whiteSpace=wrap;connectable=0;strokeColor=inherit;overflow=hidden;fillColor=none;top=0;left=0;bottom=0;right=0;pointerEvents=1;fontSize=16;" vertex="1" parent="leJ5RlOltz1dUx3BEvnj-72">
          <mxGeometry x="303" width="304" height="40" as="geometry">
            <mxRectangle width="304" height="40" as="alternateBounds" />
          </mxGeometry>
        </mxCell>
        <mxCell id="leJ5RlOltz1dUx3BEvnj-75" value="" style="shape=partialRectangle;html=1;whiteSpace=wrap;connectable=0;strokeColor=inherit;overflow=hidden;fillColor=none;top=0;left=0;bottom=0;right=0;pointerEvents=1;fontSize=16;" vertex="1" parent="leJ5RlOltz1dUx3BEvnj-72">
          <mxGeometry x="607" width="303" height="40" as="geometry">
            <mxRectangle width="303" height="40" as="alternateBounds" />
          </mxGeometry>
        </mxCell>
        <mxCell id="leJ5RlOltz1dUx3BEvnj-23" value="" style="shape=tableRow;horizontal=0;startSize=0;swimlaneHead=0;swimlaneBody=0;strokeColor=inherit;top=0;left=0;bottom=0;right=0;collapsible=0;dropTarget=0;fillColor=none;points=[[0,0.5],[1,0.5]];portConstraint=eastwest;fontSize=16;" vertex="1" parent="leJ5RlOltz1dUx3BEvnj-14">
          <mxGeometry y="150" width="910" height="40" as="geometry" />
        </mxCell>
        <mxCell id="leJ5RlOltz1dUx3BEvnj-24" value="" style="shape=partialRectangle;html=1;whiteSpace=wrap;connectable=0;strokeColor=inherit;overflow=hidden;fillColor=none;top=0;left=0;bottom=0;right=0;pointerEvents=1;fontSize=16;" vertex="1" parent="leJ5RlOltz1dUx3BEvnj-23">
          <mxGeometry width="303" height="40" as="geometry">
            <mxRectangle width="303" height="40" as="alternateBounds" />
          </mxGeometry>
        </mxCell>
        <mxCell id="leJ5RlOltz1dUx3BEvnj-25" value="" style="shape=partialRectangle;html=1;whiteSpace=wrap;connectable=0;strokeColor=inherit;overflow=hidden;fillColor=none;top=0;left=0;bottom=0;right=0;pointerEvents=1;fontSize=16;" vertex="1" parent="leJ5RlOltz1dUx3BEvnj-23">
          <mxGeometry x="303" width="304" height="40" as="geometry">
            <mxRectangle width="304" height="40" as="alternateBounds" />
          </mxGeometry>
        </mxCell>
        <mxCell id="leJ5RlOltz1dUx3BEvnj-26" value="" style="shape=partialRectangle;html=1;whiteSpace=wrap;connectable=0;strokeColor=inherit;overflow=hidden;fillColor=none;top=0;left=0;bottom=0;right=0;pointerEvents=1;fontSize=16;points=[[0,0,0,0,0],[0,0.25,0,0,0],[0,0.5,0,0,0],[0,0.75,0,0,0],[0,1,0,0,0],[0.25,0,0,0,0],[0.25,1,0,0,0],[0.5,0,0,0,0],[0.5,1,0,0,0],[0.75,0,0,0,0],[0.75,1,0,0,0],[1,0,0,0,0],[1,0.25,0,0,0],[1,0.5,0,0,0],[1,0.75,0,0,0],[1,1,0,0,0]];" vertex="1" parent="leJ5RlOltz1dUx3BEvnj-23">
          <mxGeometry x="607" width="303" height="40" as="geometry">
            <mxRectangle width="303" height="40" as="alternateBounds" />
          </mxGeometry>
        </mxCell>
      </root>
    </mxGraphModel>
  </diagram>
</mxfile>
